<?xml version="1.0"?>
<svg width="310" height="310" xmlns="http://www.w3.org/2000/svg" xmlns:svg="http://www.w3.org/2000/svg" xmlns:xlink="http://www.w3.org/1999/xlink">
 <!-- Created with SVG-edit - http://svg-edit.googlecode.com/ -->
 <defs>
  <symbol id="svg_2" viewBox="5.0 -10.0 100.0 135.0" xmlns="http://www.w3.org/2000/svg" xmlns:xlink="http://www.w3.org/1999/xlink">
   <path id="svg_1" d="m37.924,91.389c3.709999,-1.491997 7.809002,-2.247002 12.201,-2.247002c6.030998,0 11.101002,1.409004 13.610001,2.260002c-1.532001,-18.562004 3.840996,-27.239998 5.978996,-29.906002l-6.133995,-5.088997c-0.385002,1.487999 -1.132,3.088997 -1.582001,3.979c-1.164001,2.305 -3.527,6.168999 -6.271,6.168999l0,0c-0.602001,0 -1.169003,-0.191002 -1.683002,-0.558998c-3.202999,-2.320004 -2.59,-8.402 -2.107998,-11.192001l-4.757,0c0.834,5.245998 1.606998,10.604996 -3.775002,11.892998c-0.274998,0.065002 -0.558998,0.097 -0.839001,0.097c-3.812,0 -6.868999,-6.201 -8.028999,-8.928997l-4.901999,2.650997c6.787001,7.425003 8.054998,25.318001 8.289999,30.873001m-16.985001,-49.972c0,0 -1.338999,-4.694 -11.320999,-2.758999c0,0 -2.151,-11.68 12.173,-14.546001c0,0 -0.014,-11.070999 13.998001,-12.29c0,0 7.431,-0.122 12.789997,6.823001c0,0 -1.225998,-5.843 -10.969997,-8.159c0,0 11.701,-13.525 24.253998,0.481c0,0 13.579002,-0.814 16.020004,11.367999c0,0 -11.133003,-1.120998 -16.387005,8.496c0,0 11.942013,-13.036999 22.901005,-4.021999c0,0 7.68,3.650999 5.117996,13.646002c0,0 10.113998,7.549999 2.074997,19.246998c0,0 -7.801987,9.746998 -16.691986,0.366001c0,0 -1.953003,5.238998 8.406998,6.335999c0,0 -3.041,10.872002 -16.673996,8.094002c-0.919998,4.590996 -1.348999,10.639 -0.552994,18.427002c0.039993,0.389 -0.129005,0.763 -0.443001,0.993996c-0.311996,0.232002 -0.721001,0.277 -1.080986,0.128998c-0.062004,-0.028 -6.442013,-2.710999 -14.43,-2.710999c-4.672001,0 -8.972,0.905998 -12.778999,2.693001c-0.149002,0.068001 -0.308002,0.108002 -0.467003,0.108002c-0.202999,0 -0.403,-0.062004 -0.582001,-0.174004c-0.314999,-0.194 -0.511997,-0.535995 -0.514,-0.910995c-0.002998,-0.154999 -0.179996,-9.575005 -2.23,-18.423004c-0.495998,0.101013 -0.764999,0.162003 -0.764999,0.162003s-13.410999,2.904999 -17.358999,-10.060997c0,0 -10.43,-1.562004 -10.728,-14.228004c-0.3,-12.665997 11.324001,-12.738998 16.239,-9.085999"/>
  </symbol>
 </defs>
 <g>
  <title>Layer 1</title>
  <use id="svg_3" xlink:href="#svg_2" transform="matrix(1.4589308865950041,0,0,1.4589308865950041,-55.51539684220592,-42.149863407761195) " y="-0.488517" x="1.61167" fill="#e2edcd"/>
 </g>
</svg>