<?xml version="1.0"?>
<svg width="350" height="340" xmlns="http://www.w3.org/2000/svg" xmlns:svg="http://www.w3.org/2000/svg" xmlns:xlink="http://www.w3.org/1999/xlink">
 <!-- Created with SVG-edit - http://svg-edit.googlecode.com/ -->
 <defs>
  <symbol viewBox="1.1 -2.2 22.0 29.7" id="svg_3" xmlns="http://www.w3.org/2000/svg" xmlns:xlink="http://www.w3.org/1999/xlink">
   <title>cupcake</title>Created with Sketch (http://www.bohemiancoding.com/sketch)
   <g id="svg_1" fill="none" fill-rule="evenodd">
    <path d="m17.92308,15.5c-1.244221,0 -2.31849,-1.5 -3.58975,-1.5c-1.27125,0 -2.27586,1.5 -3.58974,1.5c-1.31388,0 -2.21733,-1.5 -3.58974,-1.5c-1.37242,0 -2.08834,1.5 -3.33334,1.5c-1.24499,0 -2.82051,-1.5 -2.82051,-1.5l2.5641,8l14.8718,0l2.5641,-8c0,0 -1.83271,1.5 -3.07692,1.5l0,0zm-17.92308,-5.12283c0,1.42506 1,2.600121 1,2.600121c0,0 1.39893,1.87366 2.78967,1.87366c1.39075,0 1.61194,-1.52124 3.29468,-1.52124c1.68274,0 2.59387,1.51655 3.62207,1.52124c1.02429,0.00467 2.52682,-1.5129 3.60108,-1.52124c1.52172,-0.01181 2.47363,1.50468 3.655511,1.52124c1.181889,0.01656 3.536989,-1.85095 3.536989,-1.85095c0,0 0.5,-1.31397 0.5,-2.62283c0,-1.30886 -2.18018,-8.37717 -11,-8.37717c-8.81982,0 -11,6.95212 -11,8.37717zm12,-9.37717c0,0 0,-1 -1.47298,-1c-1.47298,0 -1.52702,1 -1.52702,1l3,0l0,0z" id="svg_2" fill="#fae7c0"/>
   </g></symbol>
 </defs>
 <g>
  <title>Layer 1</title>
  <use id="svg_4" xlink:href="#svg_3" transform="matrix(1.3238581822084363,0,0,1.3238581822084363,973.1891536343076,880.4147458946421) " y="-687.07324" x="-764.4768" fill="#fae7c0"/>
 </g>
</svg>